<?xml version="1.0" encoding="utf-8"?>
<!-- Generator: Adobe Illustrator 16.0.0, SVG Export Plug-In . SVG Version: 6.00 Build 0)  -->
<!DOCTYPE svg PUBLIC "-//W3C//DTD SVG 1.1//EN" "http://www.w3.org/Graphics/SVG/1.1/DTD/svg11.dtd">
<svg version="1.1" id="Layer_1" xmlns="http://www.w3.org/2000/svg" xmlns:xlink="http://www.w3.org/1999/xlink" x="0px" y="0px"
	 width="21px" height="21.5px" viewBox="0 0 21 21.5" enable-background="new 0 0 21 21.5" xml:space="preserve">
<g>
	<polyline fill="none" stroke="#FFFFFF" stroke-width="0.5" stroke-miterlimit="10" points="17.976,9.296 17.976,18.694 
		2.375,18.694 2.375,3.094 12.062,3.094 	"/>
	<path fill="none" stroke="#FFFFFF" stroke-width="0.5" stroke-miterlimit="10" d="M6.917,11.705L6.397,14.3
		c-0.024,0.121,0.014,0.245,0.101,0.334c0.07,0.068,0.164,0.105,0.26,0.105c0.024,0,0.049-0.003,0.073-0.007l2.571-0.521
		c0.07-0.015,0.136-0.051,0.187-0.102l7.599-7.593L14.612,3.94l-7.594,7.577C6.967,11.569,6.932,11.633,6.917,11.705"/>
	<path fill="none" stroke="#FFFFFF" stroke-width="0.5" stroke-miterlimit="10" d="M19.295,2.789l-0.954-0.953
		c-0.447-0.446-1.173-0.446-1.62,0l-0.853,0.85l2.576,2.576l0.851-0.851c0.217-0.217,0.336-0.504,0.336-0.811
		S19.512,3.005,19.295,2.789"/>
	<line fill="none" stroke="#FFFFFF" stroke-width="2" stroke-miterlimit="10" x1="3.142" y1="3.094" x2="3.142" y2="18.694"/>
	<line fill="none" stroke="#FFFFFF" stroke-miterlimit="10" x1="3.142" y1="18.357" x2="17.749" y2="18.357"/>
</g>
</svg>
