<?xml version="1.0" encoding="utf-8"?>
<!-- Generator: Adobe Illustrator 16.0.0, SVG Export Plug-In . SVG Version: 6.00 Build 0)  -->
<!DOCTYPE svg PUBLIC "-//W3C//DTD SVG 1.1//EN" "http://www.w3.org/Graphics/SVG/1.1/DTD/svg11.dtd">
<svg version="1.1" id="Layer_1" xmlns="http://www.w3.org/2000/svg" xmlns:xlink="http://www.w3.org/1999/xlink" x="0px" y="0px"
	 width="25.25px" height="21.5px" viewBox="0 0 25.25 21.5" enable-background="new 0 0 25.25 21.5" xml:space="preserve">
<g>
	<g>
		<path fill="none" stroke="#FFFFFF" stroke-width="0.5" stroke-miterlimit="10" d="M19.217,10.682
			c-0.124,1.046-0.431,3.958-0.431,5.148c1.538-0.041,3.014-0.021,3.569,0c-0.186-2.03-0.432-4.164-0.616-5.148"/>
		<path fill="none" stroke="#FFFFFF" stroke-width="0.5" stroke-miterlimit="10" d="M17.617,13.943c0-1.415-0.061-3.629,0-4.429
			c0.062-0.801,0.431-1.487,1.169-1.574c0.738-0.088,2.215,0.026,3.075,0c0.862-0.026,1.232,0.712,1.232,1.512s0,4.491,0,4.491"/>
		<path fill="none" stroke="#FFFFFF" stroke-width="0.5" stroke-miterlimit="10" d="M18.787,6.841c-0.185-1.45-0.062-1.234,0-1.572
			c0.154-0.585,0.902-1.272,1.555-1.262c0.824-0.011,1.52,0.342,1.675,1.417c0.068,0.447,0.084,0.872,0,1.417"/>
		<polyline fill="none" stroke="#FFFFFF" stroke-width="0.5" stroke-miterlimit="10" points="19.32,15.83 19.688,19.44 
			21.453,19.44 21.822,15.817 		"/>
	</g>
	<g>
		<polyline fill="none" stroke="#FFFFFF" stroke-width="0.5" stroke-miterlimit="10" points="3.747,12.68 3.747,19.551 
			6.558,19.551 6.558,12.68 		"/>
		<path fill="none" stroke="#FFFFFF" stroke-width="0.5" stroke-miterlimit="10" d="M2.498,14.319c0,0,0-2.889,0-4.606
			c0-1.367,0.977-1.073,1.249-1.073c0,0,2.011-0.054,2.811-0.027C7.359,8.64,7.827,9.049,7.827,9.693c0,0.644,0,4.626,0,4.626"/>
		<circle fill="none" stroke="#FFFFFF" stroke-width="0.5" stroke-miterlimit="10" cx="5.163" cy="5.958" r="1.601"/>
	</g>
	<g>
		<polyline fill="none" stroke="#FFFFFF" stroke-width="0.5" stroke-miterlimit="10" points="10.726,11.896 10.726,20.273 
			14.152,20.273 14.152,11.896 		"/>
		<path fill="none" stroke="#FFFFFF" stroke-width="0.5" stroke-miterlimit="10" d="M9.203,13.895c0,0,0-3.521,0-5.616
			c0-1.666,1.189-1.309,1.523-1.309c0,0,2.451-0.064,3.426-0.032c0.976,0.032,1.547,0.532,1.547,1.317s0,5.64,0,5.64"/>
		<circle fill="none" stroke="#FFFFFF" stroke-width="0.5" stroke-miterlimit="10" cx="12.451" cy="3.702" r="1.952"/>
	</g>
</g>
</svg>
