<?xml version="1.0" encoding="utf-8"?>
<!-- Generator: Adobe Illustrator 16.0.0, SVG Export Plug-In . SVG Version: 6.00 Build 0)  -->
<!DOCTYPE svg PUBLIC "-//W3C//DTD SVG 1.1//EN" "http://www.w3.org/Graphics/SVG/1.1/DTD/svg11.dtd">
<svg version="1.1" id="Layer_1" xmlns="http://www.w3.org/2000/svg" xmlns:xlink="http://www.w3.org/1999/xlink" x="0px" y="0px"
	 width="25.25px" height="21.5px" viewBox="0 0 25.25 21.5" enable-background="new 0 0 25.25 21.5" xml:space="preserve">
<path fill="none" stroke="#FFFFFF" stroke-width="0.5" stroke-miterlimit="10" d="M6.31,5.117h12.464c0,0-0.213-1.285-1.241-1.285
	s-9.167,0-10.066,0C6.566,3.832,6.31,5.117,6.31,5.117z"/>
<path fill="none" stroke="#FFFFFF" stroke-width="0.5" stroke-miterlimit="10" d="M7.916,3.195h9.251c0,0-0.159-0.954-0.922-0.954
	c-0.763,0-6.803,0-7.471,0S7.916,3.195,7.916,3.195z"/>
<path fill="none" stroke="#FFFFFF" stroke-width="0.5" stroke-miterlimit="10" d="M20.402,6.188H4.981
	c-0.473,0-0.856,0.383-0.856,0.856v10.623c0,0.474,0.384,0.857,0.856,0.857h15.421c0.472,0,0.855-0.384,0.855-0.857V7.044
	C21.258,6.571,20.874,6.188,20.402,6.188z M15.618,12.644l-4.797,3.084c-0.055,0.034-0.124,0.054-0.185,0.054
	c-0.055,0-0.11-0.014-0.165-0.041c-0.109-0.062-0.178-0.178-0.178-0.302V9.272c0-0.123,0.069-0.24,0.178-0.302
	c0.11-0.062,0.247-0.055,0.35,0.014l4.797,3.084c0.096,0.062,0.158,0.171,0.158,0.288C15.776,12.473,15.714,12.583,15.618,12.644z"
	/>
</svg>
