<?xml version="1.0" encoding="utf-8"?>
<!-- Generator: Adobe Illustrator 16.0.0, SVG Export Plug-In . SVG Version: 6.00 Build 0)  -->
<!DOCTYPE svg PUBLIC "-//W3C//DTD SVG 1.1//EN" "http://www.w3.org/Graphics/SVG/1.1/DTD/svg11.dtd">
<svg version="1.1" id="Layer_1" xmlns="http://www.w3.org/2000/svg" xmlns:xlink="http://www.w3.org/1999/xlink" x="0px" y="0px"
	 width="25.25px" height="21.5px" viewBox="0 0 25.25 21.5" enable-background="new 0 0 25.25 21.5" xml:space="preserve">
<path fill="none" stroke="#FFFFFF" stroke-width="0.5" stroke-miterlimit="10" d="M18.853,13.852c0,0.186-0.112,0.356-0.299,0.471
	l-5.602,3.379c-0.161,0.094-0.357,0.14-0.558,0.14c-0.196,0-0.398-0.046-0.553-0.14l-5.602-3.374
	c-0.186-0.114-0.294-0.29-0.294-0.476c0-0.186,0.114-0.356,0.299-0.469l0.616-0.378l4.655,2.805
	c0.253,0.156,0.563,0.238,0.879,0.238c0.32,0,0.625-0.082,0.879-0.231l4.671-2.812l0.615,0.367
	C18.75,13.49,18.853,13.666,18.853,13.852"/>
<path fill="none" stroke="#FFFFFF" stroke-width="0.75" stroke-miterlimit="10" d="M5.59,7.799l6.196,3.731
	c0.175,0.105,0.394,0.159,0.613,0.159s0.439-0.053,0.613-0.158l6.195-3.731c0.21-0.126,0.331-0.317,0.332-0.525
	c0.001-0.207-0.118-0.4-0.326-0.529l-6.202-3.837c-0.35-0.215-0.876-0.216-1.225,0.001L5.584,6.745
	C5.376,6.874,5.257,7.068,5.258,7.274C5.26,7.482,5.38,7.673,5.59,7.799"/>
<path fill="none" stroke="#FFFFFF" stroke-width="0.5" stroke-miterlimit="10" d="M5.969,11.103l5.849,3.526
	c0.166,0.099,0.373,0.151,0.581,0.151s0.416-0.05,0.581-0.149l5.848-3.521c0.197-0.118,0.312-0.298,0.314-0.495
	c0.001-0.195-0.109-0.378-0.306-0.5l-0.612-0.401l-4.912,2.958c-0.26,0.156-0.584,0.242-0.914,0.242s-0.654-0.086-0.913-0.243
	L6.557,9.705l-0.597,0.38c-0.195,0.121-0.306,0.319-0.304,0.515C5.658,10.797,5.772,10.986,5.969,11.103"/>
</svg>
