<?xml version="1.0" encoding="utf-8"?>
<!-- Generator: Adobe Illustrator 16.0.0, SVG Export Plug-In . SVG Version: 6.00 Build 0)  -->
<!DOCTYPE svg PUBLIC "-//W3C//DTD SVG 1.1//EN" "http://www.w3.org/Graphics/SVG/1.1/DTD/svg11.dtd">
<svg version="1.1" id="Layer_1" xmlns="http://www.w3.org/2000/svg" xmlns:xlink="http://www.w3.org/1999/xlink" x="0px" y="0px"
	 width="25.25px" height="21.5px" viewBox="0 0 25.25 21.5" enable-background="new 0 0 25.25 21.5" xml:space="preserve">
<path fill="none" stroke="#FFFFFF" stroke-width="0.5" stroke-miterlimit="10" d="M14.874,17.866l3.277-0.036
	c0.164-0.001,0.297-0.105,0.295-0.233l-0.011-1.074 M5.788,9.999l0.083,7.733c0.001,0.128,0.137,0.229,0.302,0.229l2.606-0.028"/>
<path fill="none" stroke="#FFFFFF" stroke-width="0.5" stroke-miterlimit="10" d="M17.853,3.681l-5.011-2.267
	c-0.078-0.036-0.167-0.039-0.248-0.008L4.102,4.608C3.935,4.671,3.85,4.858,3.913,5.025L8.78,17.932l0.622,1.65
	c0.063,0.168,0.25,0.253,0.418,0.189l5.053-1.905l7.078-2.669c0.167-0.063,0.252-0.25,0.188-0.418L18.022,3.861
	C17.992,3.781,17.931,3.716,17.853,3.681z M14.269,4.93l-0.982-2.603l3.585,1.622L14.269,4.93z"/>
</svg>
