<?xml version="1.0" encoding="utf-8"?>
<!-- Generator: Adobe Illustrator 16.0.0, SVG Export Plug-In . SVG Version: 6.00 Build 0)  -->
<!DOCTYPE svg PUBLIC "-//W3C//DTD SVG 1.1//EN" "http://www.w3.org/Graphics/SVG/1.1/DTD/svg11.dtd">
<svg version="1.1" id="Layer_1" xmlns="http://www.w3.org/2000/svg" xmlns:xlink="http://www.w3.org/1999/xlink" x="0px" y="0px"
	 width="25.25px" height="21.5px" viewBox="0 0 25.25 21.5" enable-background="new 0 0 25.25 21.5" xml:space="preserve">
<path fill="none" stroke="#FFFFFF" stroke-width="0.5" stroke-miterlimit="10" d="M12.088,7.539v7.985c0,0-0.574-0.012-1.129,0
	c-0.343,0.074-0.484,0.182-0.484,0.827c0,0.814,0,3.69,0,3.69s-3.478,0.019-3.883-0.007c-0.405-0.026-0.634-0.204-0.634-0.663
	c0-0.37,0-6.269,0-8.571c0-0.562,0-0.91,0-0.91"/>
<path fill="none" stroke="#FFFFFF" stroke-width="0.5" stroke-miterlimit="10" d="M12.861,15.524c0,0,0.539-0.012,1.062,0
	c0.322,0.074,0.454,0.182,0.454,0.827c0,0.814,0,3.69,0,3.69s3.269,0.019,3.649-0.007c0.38-0.026,0.595-0.204,0.595-0.663
	c0-0.37,0-6.269,0-8.571c0-0.562,0-0.91,0-0.91"/>
<polyline fill="none" stroke="#FFFFFF" stroke-width="0.75" stroke-miterlimit="10" points="3.592,10.496 12.191,1.327 
	21.176,10.496 "/>
</svg>
