<?xml version="1.0" encoding="utf-8"?>
<!-- Generator: Adobe Illustrator 16.0.0, SVG Export Plug-In . SVG Version: 6.00 Build 0)  -->
<!DOCTYPE svg PUBLIC "-//W3C//DTD SVG 1.1//EN" "http://www.w3.org/Graphics/SVG/1.1/DTD/svg11.dtd">
<svg version="1.1" id="Layer_1" xmlns="http://www.w3.org/2000/svg" xmlns:xlink="http://www.w3.org/1999/xlink" x="0px" y="0px"
	 width="864px" height="864px" viewBox="0 0 864 864" enable-background="new 0 0 864 864" xml:space="preserve">
<g>
	<g>
		<path fill-rule="evenodd" clip-rule="evenodd" fill="#955EA6" d="M123.842,326.015c43.316-6.867,86.855-8.643,130.547-6.623
			c19.575,0.904,39.139,2.207,58.676,3.726c8.69,0.677,17.317,2.236,25.938,3.616c1.997,0.32,4.263,1.095,5.7,2.423
			c9.29,8.587,21.022,9.853,32.716,11.263c16.146,1.948,32.263,4.539,48.469,5.456c12.27,0.694,24.706-0.313,36.984-1.439
			c16.5-1.512,32.984-3.475,49.341-6.08c5.435-0.866,10.787-3.772,15.587-6.708c6.909-4.224,14.179-6.235,22.157-6.918
			c17.416-1.492,34.781-3.598,52.203-4.999c9.921-0.796,19.915-0.961,29.875-0.945c21.156,0.033,42.339-0.168,63.465,0.761
			c16.527,0.726,32.981,3.009,49.468,4.607c3.563,0.345,7.122,0.719,10.771,2.123c-2.419,0.15-4.839,0.431-7.258,0.434
			c-22.078,0.036-44.152,0.039-66.23,0.017c-51.694-0.047-102.21,7.427-150.938,24.881c-23.225,8.318-46.059,17.779-68.776,27.408
			c-6.784,2.877-12.716,7.898-18.774,12.296c-3.633,2.636-6.954,3.518-10.582,0.51c-22.328-18.52-49.235-27.624-76.146-36.507
			c-24.847-8.203-49.751-16.566-75.74-20.37c-20.553-3.008-41.268-5.007-61.958-6.96c-14.983-1.415-30.038-2.115-45.072-2.913
			c-3.259-0.173-6.564,0.869-9.852,0.896C150.889,326.081,137.365,326.015,123.842,326.015z"/>
		<path fill-rule="evenodd" clip-rule="evenodd" fill="#955EA6" d="M115.11,575.176c-12.978,2.518-39.939,1.55-45.203-2.078
			c2.34-1.19,4.236-2.765,6.336-3.115c8.669-1.442,11.172-7.742,11.679-15.016c1.671-24.027,3.007-48.078,4.418-72.123
			c0.67-11.418,1.463-22.839,1.75-34.271c0.254-10.082-0.744-11.084-9.904-14.723c-2.275-0.905-4.397-2.195-6.328-4.372
			c11.081-2.767,21.956-1.917,33.387-1.64c4.018,22.198,15.38,40.817,24.884,60.241c9.487,19.393,17.75,39.397,29.427,58.967
			c1.86-2.852,3.346-4.657,4.331-6.706c8.742-18.175,17.35-36.413,26.089-54.589c8.354-17.375,16.947-34.636,25.144-52.086
			c2.064-4.394,4.559-6.516,9.605-6.259c8.579,0.432,17.187,0.295,25.784,0.396c0.179,0.815,0.359,1.633,0.54,2.449
			c-3.053,1.32-6.045,2.813-9.171,3.928c-7.717,2.753-10.75,5.793-10.66,13.751c0.226,19.878,1.057,39.747,1.566,59.623
			c0.325,12.67,0.516,25.342,0.747,38.012c0.055,3.018-0.11,6.046,0.068,9.056c0.707,11.861,2.689,14.085,14.597,16.859
			c0.811,0.186,1.541,0.731,3.241,1.571c-1.705,1.293-2.901,2.987-4.118,3.004c-14.818,0.186-29.638,0.17-44.456,0.043
			c-1.256-0.009-2.503-1.184-5.514-2.71c4.461-1.584,7.324-2.738,10.271-3.617c4.98-1.483,7.619-4.65,7.614-9.887
			c-0.031-32.005-0.059-64.008-0.146-96.013c-0.001-0.759-0.669-1.516-1.823-3.965c-11.236,20.028-20.358,39.7-29.864,59.188
			c-9.607,19.698-19.676,39.173-30.393,60.43c-18.686-40.817-36.637-80.028-54.589-119.244c-0.677,0.057-1.352,0.111-2.029,0.163
			c-0.482,3.093-1.274,6.171-1.394,9.273c-0.723,18.977-1.257,37.958-1.934,56.932c-0.248,6.908-0.825,13.808-1.043,20.717
			c-0.123,3.907-0.042,7.849,0.338,11.735c0.583,5.952,3.45,10.015,9.812,11.212c2.637,0.495,5.108,1.865,7.655,2.837
			C115.589,573.824,115.35,574.499,115.11,575.176z"/>
		<path fill-rule="evenodd" clip-rule="evenodd" fill="#955EA6" d="M438.328,284.871c2.304,5.68,4.525,11.397,6.934,17.036
			c5.018,11.767,17.913,16.243,28.69,10.053c9.621-5.524,20.207-7.834,31.089-8.339c18.018-0.836,36.061-1.125,54.094-1.645
			c0.116,0.865,0.234,1.729,0.35,2.595c-2.017,0.525-4.019,1.138-6.059,1.561c-8.208,1.706-16.716,2.542-24.554,5.29
			c-5.754,2.02-11.506,5.688-15.716,10.094c-7.172,7.506-15.707,10.674-25.547,11.623c-9.488,0.916-19.066,1.267-28.461,2.759
			c-19.662,3.121-39.047,0.363-58.5-1.733c-7.183-0.776-14.362-1.636-21.564-2.194c-5.372-0.416-9.695-2.027-13.111-6.65
			c-8.429-11.4-20.108-16.724-34.218-17.458c-5.5-0.288-10.947-1.613-16.423-4.089c1.858-0.418,3.726-1.243,5.571-1.194
			c18.083,0.471,36.221,0.409,54.219,1.953c8.835,0.757,17.912,3.484,25.987,7.236c13.993,6.5,28.349-1.801,31.867-16.273
			c0.872-3.589,2.09-7.095,3.149-10.637C436.86,284.861,437.594,284.865,438.328,284.871z"/>
		<path fill-rule="evenodd" clip-rule="evenodd" fill="#955EA6" d="M732.609,574.045c-8.061,3.34-34.511,2.926-41.261-0.611
			c1.534-0.822,2.694-1.697,4.001-2.099c6.317-1.94,9.104-5.823,9.019-12.706c-0.245-19.785,0.099-39.577,0.114-59.367
			c0.009-12.922-0.346-25.844-0.175-38.761c0.154-11.827,0.69-23.625-7.766-33.121c5.791-5.254,11.591-7.679,23.47-9.932
			c0,25.673,0,51.181,0,77.879c6.154-2.64,11.123-4.591,15.931-6.877c8.328-3.96,17.19-3.534,25.848-2.642
			c10.265,1.061,17.995,12.036,18.149,24.776c0.171,14.496,0.032,28.994,0.044,43.491c0.011,12.564,0.024,12.554,12.204,17.442
			c0.731,0.293,1.299,0.997,3.13,2.456c-15.019,4.921-29.163,0.187-43,2.263c-0.241-0.68-0.484-1.356-0.728-2.036
			c1.422-0.972,2.717-2.354,4.292-2.844c5.187-1.62,8.028-4.75,8.53-10.325c1.549-17.161,1.954-34.315-1.093-51.329
			c-1.617-9.03-8.222-14.287-16.675-15.832c-8.73-1.595-16.938,1.645-22.725,8.335c-2.463,2.849-3.567,7.641-3.689,11.596
			c-0.43,13.88,0.048,27.786-0.252,41.674c-0.166,7.778,2.061,13.566,9.894,16.284C730.646,572.027,731.224,572.861,732.609,574.045
			z"/>
		<path fill-rule="evenodd" clip-rule="evenodd" fill="#955EA6" d="M346.638,532.241c0.689,9.917-1.183,20.227-7.984,28.966
			c-10.217,13.131-23.135,20.578-40.499,17.608c-5.323-0.908-10.913-0.985-15.95-2.703c-12.477-4.251-20.91-13.047-24.744-25.642
			c-4.381-14.398-3.507-28.832,2.908-42.388c7.04-14.875,19.908-22.264,35.93-23.581c7.985-0.654,16.227-1.238,24.021,2.431
			C339.205,495.82,347.396,510.88,346.638,532.241z M328.395,534.045c-0.041-11.461-3.931-24.701-9.516-32.38
			c-11.23-15.443-30.913-13.948-39.239,3.271c-2.578,5.332-4.096,11.26-5.485,17.062c-4.07,16.979,1.507,31.364,13.131,43.568
			c9.203,9.662,26.232,8.855,34.075-4.005C326.545,553.061,328.767,543.909,328.395,534.045z"/>
		<path fill-rule="evenodd" clip-rule="evenodd" fill="#955EA6" d="M391.236,572.702c-7.585,3.994-29.536,4.748-42.236,2.042
			c2.126-1.72,3.295-3.232,4.815-3.794c6.012-2.212,8.253-6.919,8.319-12.692c0.174-15.371,0.345-30.755-0.164-46.112
			c-0.144-4.287-2.569-8.531-4.12-12.731c-0.805-2.177-1.99-4.212-3.446-7.231c7.771-3.646,14.915-6.997,23.1-10.836
			c0.356,5.236,0.604,8.86,0.945,13.871c5.862-2.271,10.707-4.31,15.664-6.02c5.104-1.761,10.224-4.02,15.501-4.619
			c14.837-1.688,27.366,4.869,27.789,23.968c0.209,9.353-0.048,18.715,0.077,28.068c0.106,7.785,0.318,15.575,0.771,23.347
			c0.249,4.323,1.494,8.237,6.188,10.164c2.017,0.829,3.685,2.501,6.088,4.2c-7.233,2.254-29.002,2.681-41.591,0.894
			c2.009-1.845,3.118-3.701,4.601-4.076c6.528-1.643,8.872-6.874,8.949-12.245c0.218-15.652,0.28-31.385-1.072-46.96
			c-0.965-11.161-8.429-16.766-19.552-17.625c-10.71-0.826-20.335,5.892-22.866,16.337c-0.914,3.769-1.316,7.733-1.395,11.618
			c-0.193,9.652,0.09,19.317-0.11,28.97C377.292,560.773,378.36,569.42,391.236,572.702z"/>
		<path fill-rule="evenodd" clip-rule="evenodd" fill="#955EA6" d="M538.621,569.892c-7.354,9.967-19.692,12.399-28.566,5.015
			c-5.516-4.592-9.786-4.667-15.152-0.791c-7.42,5.357-15.853,5.462-24.304,3.696c-8.21-1.72-13.067-7.593-13.874-15.691
			c-1.054-10.543,1.509-15.976,10.464-19.653c8.864-3.64,18.07-6.447,27.066-9.777c5.743-2.127,11.391-4.467,11.406-12.123
			c0.021-9.661,0.94-19.78-9.096-25.646c-8.939-5.228-17.277-1.565-21.769,8.464c-1.649,3.688-3.862,7.618-6.94,9.987
			c-1.992,1.531-6.499,1.372-8.931,0.125c-1.265-0.649-1.487-5.796-0.384-8.02c1.793-3.614,4.648-6.995,7.788-9.592
			c9.385-7.76,20.78-10.507,32.613-11.511c12.416-1.052,20.458,5.548,21.167,19.105c0.879,16.816,0.072,33.714,0.348,50.568
			c0.057,3.412,0.908,7.374,2.849,10.021c1.711,2.336,5.353,3.433,8.328,4.605C533.684,569.483,536.051,569.479,538.621,569.892z
			 M504.51,548.328c0-1.506,0.068-3.015-0.009-4.517c-0.346-6.552-1.271-7.376-7.67-5.173c-5.659,1.949-11.307,4.176-16.557,7.016
			c-5.82,3.151-7.852,9.325-5.647,14.479c2.814,6.583,9.63,10.144,16.068,8.396C500.836,565.771,504.349,560.637,504.51,548.328z"/>
		<path fill-rule="evenodd" clip-rule="evenodd" fill="#955EA6" d="M684.272,504.753c-3.71-2.281-6.911-3.744-9.508-5.925
			c-18.817-15.796-38.966-3.935-46.172,13.501c-8.058,19.483,0.305,44.646,23.382,53.48c9.807,3.753,18.313,0.938,26.512-4.121
			c3.258-2.011,6.131-4.642,9.986-7.61c1.783,7.903-3.033,12.095-7.158,15.43c-16.702,13.499-43.455,12.363-58.869-2.342
			c-3.371-3.215-6.195-7.511-7.917-11.843c-5.003-12.588-5.786-25.564-1.44-38.611c5.063-15.201,16.205-24.597,30.749-29.438
			c11.779-3.923,24.155-4.793,36.312-0.082c6.748,2.613,7.257,3.093,6.053,10.4C685.879,499.564,685.172,501.47,684.272,504.753z"/>
		<path fill-rule="evenodd" clip-rule="evenodd" fill="#955EA6" d="M570.828,482.642c0.706,5.843,1.17,9.657,1.771,14.642
			c5.13-2.938,9.599-5.644,14.206-8.09c4.575-2.431,9.21-4.248,14.642-2.122c3.535,1.384,6.268,3.758,5.416,7.141
			c-0.693,2.744-3.424,6.261-5.934,6.951c-3.474,0.954-7.74,0.118-11.398-0.906c-9.702-2.724-16.295,1.438-16.457,11.529
			c-0.274,16.911,0.062,33.834-0.161,50.747c-0.065,4.796,2.188,7.2,6.25,8.646c2.708,0.966,5.435,1.889,8.058,3.813
			c-14.066,2.751-28.108,1.774-42.746-0.104c1.459-1.093,2.809-2.386,4.396-3.239c5.3-2.862,7.809-7.029,7.72-13.204
			c-0.216-14.799,0.229-29.61-0.245-44.397c-0.148-4.609-2.236-9.203-3.737-13.706c-0.714-2.136-2.134-4.037-3.814-7.106
			C556.214,489.668,562.793,486.506,570.828,482.642z"/>
	</g>
</g>
</svg>
